# AST/ASF file generated using VICON BodyLanguage
# -----------------------------------------------
:version 1.10
:name VICON
:units
  mass 1.0
  length 0.45
  angle deg
:documentation
   .ast/.asf automatically generated from VICON data using
   VICON BodyBuilder and BodyLanguage model FoxedUp or BRILLIANT.MOD
:root
   order TX TY TZ RX RY RZ
   axis XYZ
   position 0 0 0  
   orientation 0 0 0 
:bonedata
  begin
     id 1 
     name lhipjoint
     direction 0.711131 -0.61297 0.344326 
     length 2.29162 
     axis 0 0 0  XYZ
  end
  begin
     id 2 
     name lfemur
     direction 0.34202 -0.939693 0  
     length 6.71424  
     axis 0 0 20  XYZ
    dof rx ry rz
    limits (-160.0 20.0)
           (-70.0 70.0)
           (-60.0 70.0)
  end
  begin
     id 3 
     name ltibia
     direction 0.34202 -0.939693 0   
     length 6.7087   
     axis 0 0 20   XYZ
    dof rx
    limits (-10.0 170.0)
  end
  begin
     id 4 
     name lfoot
     direction 0.0230374 -0.0632947 0.997729   
     length 1.56743   
     axis -90 7.62852e-016 20   XYZ
    dof rx rz
    limits (-45.0 90.0)
           (-70.0 20.0)
  end
  begin
     id 5 
     name ltoes
     direction 1.53585e-011 -4.21885e-011 1   
     length 0.802914   
     axis -90 7.62852e-016 20   XYZ
    dof rx
    limits (-90.0 20.0)
  end
  begin
     id 6 
     name rhipjoint
     direction -0.733192 -0.592884 0.333043   
     length 2.36925  
     axis 0 0 0  XYZ 
  end
  begin
     id 7 
     name rfemur
     direction -0.34202 -0.939693 0   
     length 6.67027   
     axis 0 0 -20   XYZ
    dof rx ry rz
    limits (-160.0 20.0)
           (-70.0 70.0)
           (-70.0 60.0)
  end
  begin
     id 8 
     name rtibia
     direction -0.34202 -0.939693 0   
     length 6.6862   
     axis 0 0 -20   XYZ
    dof rx
    limits (-10.0 170.0)
 end
 begin
     id 9 
     name rfoot
     direction -0.0949739 -0.260939 0.960672   
     length 1.67698  
     axis -90 -7.62852e-016 -20   XYZ
    dof rx rz
    limits (-45.0 90.0)
           (-20.0 70.0)
  end
  begin
     id 10 
     name rtoes
     direction -1.5353e-011 -4.21868e-011 1   
     length 0.846298   
     axis -90 -7.62852e-016 -20   XYZ
    dof rx
    limits (-90.0 20.0)
  end
  begin
     id 11 
     name lowerback
     direction -0.0206828 0.999785 -0.00109866   
     length 2.04382   
     axis 0 0 0   XYZ
    dof rx ry rz
    limits (-20.0 45.0)
           (-30.0 30.0)
           (-30.0 30.0)
  end
  begin
     id 12 
     name upperback
     direction -0.0105003 0.999727 -0.0208904   
     length 2.04538   
     axis 0 0 0   XYZ
    dof rx ry rz
    limits (-20.0 45.0)
           (-30.0 30.0)
           (-30.0 30.0)
  end
  begin
     id 13 
     name thorax
     direction -0.000416255 0.999808 -0.0196023   
     length 2.0399   
     axis 0 0 0   XYZ
    dof rx ry rz
    limits (-20.0 45.0)
           (-30.0 30.0)
           (-30.0 30.0)
  end
  begin
     id 14 
     name lowerneck
     direction 0.0627861 0.989205 0.13241   
     length 1.46207   
     axis 0 0 0   XYZ
    dof rx ry rz
    limits (-20.0 45.0)
           (-30.0 30.0)
           (-30.0 30.0)
  end
  begin
     id 15 
     name upperneck
     direction 0.00627179 0.994526 0.104303   
     length 1.41419   
     axis 0 0 0   XYZ
    dof rx ry rz
    limits (-20.0 45.0)
           (-30.0 30.0)
           (-30.0 30.0)
  end
  begin
     id 16
     name head
     direction -0.00443838 0.999688 0.0245968  
     length 1.50718  
     axis 0 0 0   XYZ
    dof rx ry rz
    limits (-20.0 45.0)
           (-30.0 30.0)
           (-30.0 30.0)
  end
  begin
     id 17 
     name lclavicle
     direction 0.758742 0.650995 -0.0227258  
     length 2.86888  
     axis 0 0 0   XYZ
    dof ry rz
    limits (-20.0 10.0)
           (0.0 20.0)
  end
  begin
     id 18 
     name lhumerus
     direction 1 -4.48962e-011 1.06664e-027   
     length 4.65776   
     axis -180 -30 -90   XYZ
    dof rx ry rz
    limits (-60.0 90.0)
           (-90.0 90.0)
           (-90.0 90.0)
  end
  begin
     id 19
     name lradius
     direction 1 -4.48968e-011 1.40404e-026   
     length 3.55539   
     axis -180 -30 -90   XYZ
    dof rx
    limits (-10.0 170.0)
  end
  begin
     id 20
     name lwrist
     direction 1 -4.48976e-011 3.32647e-026   
     length 1.77769   
     axis -2.20186e-014 90 90   XYZ
    dof ry
    limits (-180.0 0.0)
 end
  begin
     id 21 
     name lhand
     direction 1 -4.48982e-011 6.65293e-026   
     length 0.707264   
     axis -4.24514e-014 90 90   XYZ
    dof rx rz
    limits (-90.0 90.0)
           (-45.0 45.0)
  end
  begin
     id 22 
     name lfingers
     direction 1 -4.48966e-011 1.33059e-025   
     length 0.570215   
     axis -8.49028e-014 90 90   XYZ
    dof rx
    limits (0.0 90.0)
  end
  begin
     id 23
     name lthumb
     direction 0.707107 -6.3493e-011 0.707107   
     length 0.818718   
     axis -90 45 2.85299e-015   XYZ
    dof rx rz
    limits (-45.0 45.0)
           (-45.0 45.0)
  end
  begin
     id 24 
     name rclavicle
     direction -0.870343 0.482028 -0.100759   
     length 3.2251  
     axis 0 0 0   XYZ 
    dof ry rz
    limits (-10.0 20.0)
           (-20.0 0.0)
  end
  begin
     id 25 
     name rhumerus
     direction -1 -4.48974e-011 -9.45849e-028  
     length 4.71925   
     axis -180 30 90   XYZ
    dof rx ry rz
    limits (-90.0 60.0)
           (-90.0 90.0)
           (-90.0 90.0)
  end
  begin
     id 26 
     name rradius
     direction -1 -4.48965e-011 1.17607e-026   
     length 3.5699   
     axis -180 30 90   XYZ
    dof rx
    limits (-10.0 170.0)
  end
  begin
     id 27 
     name rwrist
     direction -1 -4.48968e-011 3.32647e-026   
     length 1.78495   
     axis -2.20186e-014 -90 -90   XYZ
    dof ry
    limits (-180.0 0.0)
  end
  begin
     id 28
     name rhand
     direction -1 -4.48995e-011 6.65293e-026   
     length 0.507757   
     axis -4.24514e-014 -90 -90   XYZ
    dof rx rz
    limits (-90.0 90.0)
           (-45.0 45.0)
  end
  begin
     id 29
     name rfingers
     direction -1 -4.48864e-011 1.33059e-025   
     length 0.409367   
     axis -8.49028e-014 -90 -90   XYZ
    dof rx
    limits (0.0 90.0)
  end
  begin
     id 30
     name rthumb
     direction -0.707107 -6.3494e-011 0.707107   
     length 0.587771   
     axis -90 -45 -2.85299e-015   XYZ
    dof rx rz
    limits (-45.0 45.0)
           (-45.0 45.0)
  end
:hierarchy
  begin
    root lhipjoint rhipjoint lowerback
    lhipjoint lfemur
    lfemur ltibia
    ltibia lfoot
    lfoot ltoes
    rhipjoint rfemur
    rfemur rtibia
    rtibia rfoot
    rfoot rtoes
    lowerback upperback
    upperback thorax
    thorax lowerneck lclavicle rclavicle
    lowerneck upperneck
    upperneck head
    lclavicle lhumerus
    lhumerus lradius
    lradius lwrist
    lwrist lhand lthumb
    lhand lfingers
    rclavicle rhumerus
    rhumerus rradius
    rradius rwrist
    rwrist rhand rthumb
    rhand rfingers
  end

#!OML:ASF E:\Steps\Project 1\Capture day 1\Session 2\Subject.ASF
:FULLY-SPECIFIED
:DEGREES
1
root 7.43888 16.305 31.5982 -156.66 -1.67105 177.438
lowerback -29.2332 -1.81834 -7.11689
upperback -1.1082 -0.612999 -0.203168
thorax 14.2396 -0.989115 3.34791
lowerneck -5.56763 -1.63456 -1.26053
upperneck 5.82732 -2.28876 2.49088
head 2.88151 -1.09373 0.926422
rclavicle -1.11816e-015 -3.97569e-015
rhumerus -38.1471 -23.7363 -74.2118
rradius 28.0003
rwrist 4.99707
rhand -11.8507 -53.5538
rfingers 7.12502
rthumb 14.2009 -83.0484
lclavicle -1.11816e-015 -3.97569e-015
lhumerus -34.0839 22.4637 71.9767
lradius 12.5617
lwrist -24.6591
lhand -16.4208 -11.9536
lfingers 7.12502
lthumb 9.79414 17.7987
rfemur -22.2257 5.86605 19.0686
rtibia 9.0115
rfoot -19.7541 -7.51634
rtoes -30.8313
lfemur -25.5427 -9.74703 -20.674
ltibia 13.9226
lfoot -10.4611 2.80888
ltoes -44.4191
2
root 7.43203 16.3081 31.5922 -156.853 -1.82489 177.422
lowerback -29.1176 -1.82064 -7.03512
upperback -1.02206 -0.62372 -0.25688
thorax 14.288 -0.983353 3.24448
lowerneck -5.32559 -1.65366 -1.35059
upperneck 5.6295 -2.31962 2.69629
head 2.77505 -1.10732 1.00842
rclavicle 1.41634e-015 -2.68359e-014
rhumerus -38.1537 -23.7144 -74.2231
rradius 27.9745
rwrist 4.72548
rhand -11.9163 -52.9641
rfingers 7.12502
rthumb 14.1377 -82.4631
lclavicle 1.41634e-015 -2.68359e-014
lhumerus -34.0028 21.8235 72.2827
lradius 12.7004
lwrist -23.8819
lhand -16.5588 -11.9163
lfingers 7.12502
lthumb 9.66109 17.8421
rfemur -21.9062 5.82319 19.0416
rtibia 8.87502
rfoot -19.6927 -7.7103
rtoes -31.0091
lfemur -25.2839 -10.1189 -20.651
ltibia 13.8347
lfoot -10.5142 2.89174
ltoes -42.7483
3
root 7.43155 16.3068 31.5906 -156.948 -1.88365 177.361
lowerback -29.0162 -1.84028 -7.1336
upperback -1.0153 -0.617131 -0.287775
thorax 14.2474 -0.983459 3.26859
lowerneck -6.0656 -1.72779 -1.06106
upperneck 6.6412 -2.44314 2.318
head 3.25134 -1.16876 0.825835
rclavicle 1.31695e-015 -1.27222e-014
rhumerus -38.2681 -23.8764 -74.0794
rradius 27.8826
rwrist 4.84759
rhand -11.5662 -52.449
rfingers 7.12502
rthumb 14.4751 -81.9241
lclavicle 1.31695e-015 -1.27222e-014
lhumerus -34.0142 21.4055 72.4566
lradius 12.7634
lwrist -23.4377
lhand -16.7279 -11.8982
lfingers 7.12502
lthumb 9.49788 17.8678
rfemur -21.7629 5.79932 19.0086
rtibia 8.82509
rfoot -19.6905 -7.80686
rtoes -31.6896
lfemur -25.1616 -10.1052 -20.7517
ltibia 13.8167
lfoot -10.4797 2.8108
ltoes -42.7446
4
root 7.43408 16.3051 31.5882 -157.052 -1.95756 177.431
lowerback -28.9231 -1.80284 -7.15338
upperback -1.00434 -0.561504 -0.301854
thorax 14.2112 -0.956498 3.28776
lowerneck -6.13851 -1.84411 -0.830308
upperneck 6.80255 -2.61406 2.16436
head 3.3171 -1.25329 0.726095
rclavicle 7.8023e-015 -8.34896e-015
rhumerus -38.4752 -24.0868 -73.9782
rradius 27.8683
rwrist 5.01777
rhand -11.9161 -54.0351
rfingers 7.12502
rthumb 14.1379 -83.5341
lclavicle 7.8023e-015 -8.34896e-015
lhumerus -34.0184 21.2633 72.4667
lradius 12.7971
lwrist -23.3578
lhand -16.8084 -12.0373
lfingers 7.12502
lthumb 9.42026 17.7322
rfemur -21.5962 5.98632 19.0992
rtibia 8.74922
rfoot -19.7162 -7.94269
rtoes -31.7068
lfemur -25.0381 -10.0338 -20.6703
ltibia 13.8028
lfoot -10.4935 2.69685
ltoes -42.7501
5
root 7.43468 16.3039 31.5863 -157.099 -2.04385 177.53
lowerback -28.9298 -1.75614 -7.11174
upperback -0.957189 -0.503718 -0.294804
thorax 14.2638 -0.92746 3.29616
lowerneck -6.33657 -1.88647 -0.611289
upperneck 7.15652 -2.67216 1.80781
head 3.46823 -1.28859 0.565662
rclavicle 1.05853e-014 -1.66979e-014
rhumerus -38.5195 -24.1794 -73.9643
rradius 27.8478
rwrist 4.98995
rhand -12.0932 -54.5804
rfingers 7.12502
rthumb 13.9672 -84.0912
lclavicle 1.05853e-014 -1.66979e-014
lhumerus -33.9233 20.9995 72.6731
lradius 12.9092
lwrist -23.0179
lhand -16.9607 -12.0832
lfingers 7.12502
lthumb 9.27325 17.6928
rfemur -21.4867 6.23141 19.2038
rtibia 8.67679
rfoot -19.6875 -8.21387
rtoes -31.6963
lfemur -24.9946 -10.0545 -20.5231
ltibia 13.7979
lfoot -10.5214 2.67318
ltoes -42.5553
6
root 7.4316 16.3041 31.5858 -157.115 -2.10548 177.564
lowerback -28.9224 -1.76041 -7.11478
upperback -0.939866 -0.509528 -0.252193
thorax 14.2822 -0.930604 3.34265
lowerneck -6.84238 -1.83951 -0.53787
upperneck 7.86126 -2.60301 1.43181
head 3.80531 -1.26534 0.425927
rclavicle -5.96354e-015 2.5842e-015
rhumerus -38.507 -24.2473 -73.8574
rradius 27.7596
rwrist 4.99547
rhand -12.2806 -54.5026
rfingers 7.12502
rthumb 13.7866 -84.0258
lclavicle -5.96354e-015 2.5842e-015
lhumerus -33.8765 20.5371 73.0716
lradius 13.1293
lwrist -22.2713
lhand -17.0373 -11.9804
lfingers 7.12502
lthumb 9.19939 17.7989
rfemur -21.4501 6.46186 19.2075
rtibia 8.67342
rfoot -19.6774 -8.48855
rtoes -31.6329
lfemur -24.9792 -10.1056 -20.4843
ltibia 13.8014
lfoot -10.5196 2.72011
ltoes -42.8431
7
root 7.42676 16.3041 31.5838 -157.09 -2.22433 177.56
lowerback -28.9176 -1.80477 -7.10884
upperback -0.953271 -0.574723 -0.229419
thorax 14.2719 -0.959669 3.33889
lowerneck -6.14375 -1.72056 -1.44337
upperneck 6.94244 -2.44298 2.69895
head 3.38509 -1.16519 1.01841
rclavicle 8.34896e-015 3.97569e-015
rhumerus -38.5202 -24.4143 -73.6997
rradius 27.6031
rwrist 5.12955
rhand -12.467 -54.6921
rfingers 7.12502
rthumb 13.6069 -84.2274
lclavicle 8.34896e-015 3.97569e-015
lhumerus -33.8576 20.0901 73.3935
lradius 13.3163
lwrist -21.5445
lhand -17.0708 -11.7721
lfingers 7.12502
lthumb 9.16707 18.0086
rfemur -21.5053 6.44724 19.1799
rtibia 8.77102
rfoot -19.7256 -8.59593
rtoes -31.5257
lfemur -25.0237 -10.2175 -20.474
ltibia 13.8193
lfoot -10.5036 2.71516
ltoes -43.1596
8
root 7.42409 16.3051 31.5798 -157.161 -2.34522 177.545
lowerback -28.8452 -1.83456 -7.10141
upperback -0.929494 -0.613506 -0.23843
thorax 14.2704 -0.974124 3.31174
lowerneck -6.35604 -1.80397 -1.38679
upperneck 7.20393 -2.55669 2.57572
head 3.51635 -1.22303 0.961205
rclavicle -9.19379e-016 1.39149e-015
rhumerus -38.4989 -24.569 -73.6517
rradius 27.4717
rwrist 5.19962
rhand -12.563 -55.1911
rfingers 7.12502
rthumb 13.5144 -84.7326
lclavicle -9.19379e-016 1.39149e-015
lhumerus -33.791 19.8847 73.5445
lradius 13.4046
lwrist -21.1475
lhand -17.0683 -11.6841
lfingers 7.12502
lthumb 9.16943 18.0966
rfemur -21.436 6.07099 19.2408
rtibia 8.84604
rfoot -19.7741 -8.43693
rtoes -31.7962
lfemur -24.9396 -10.2313 -20.5118
ltibia 13.8066
lfoot -10.4655 2.63187
ltoes -43.6286
9
root 7.42232 16.3009 31.577 -157.092 -2.35797 177.554
lowerback -28.9381 -1.81764 -7.08735
upperback -0.946639 -0.593396 -0.24889
thorax 14.2908 -0.966518 3.29841
lowerneck -6.7979 -1.86371 -1.16013
upperneck 7.76977 -2.64144 2.20135
head 3.79131 -1.27078 0.789752
rclavicle 5.2181e-015 -3.8763e-014
rhumerus -38.554 -24.6327 -73.6498
rradius 27.4635
rwrist 5.16771
rhand -12.6675 -55.4931
rfingers 7.12502
rthumb 13.4137 -85.0412
lclavicle 5.2181e-015 -3.8763e-014
lhumerus -33.7245 19.7883 73.6425
lradius 13.4253
lwrist -20.9646
lhand -17.15 -11.9288
lfingers 7.12502
lthumb 9.09056 17.8553
rfemur -21.5277 5.88605 19.2691
rtibia 8.88695
rfoot -19.8214 -8.23602
rtoes -31.5296
lfemur -25.0279 -10.1525 -20.5178
ltibia 13.8431
lfoot -10.4733 2.56013
ltoes -43.4474
10
root 7.42025 16.2999 31.5747 -157.036 -2.40766 177.576
lowerback -29.005 -1.80957 -7.0904
upperback -0.96853 -0.582431 -0.250141
thorax 14.2947 -0.963575 3.30133
lowerneck -6.18238 -1.83613 -1.41183
upperneck 7.08379 -2.60163 2.63921
head 3.4436 -1.24539 0.985167
rclavicle 2.88238e-015 -1.82882e-014
rhumerus -38.6213 -24.8688 -73.5312
rradius 27.3569
rwrist 5.3155
rhand -12.7979 -55.8838
rfingers 7.12502
rthumb 13.288 -85.4402
lclavicle 2.88238e-015 -1.82882e-014
lhumerus -33.6519 19.4728 73.8554
lradius 13.5126
lwrist -20.5682
lhand -17.2596 -12.2805
lfingers 7.12502
lthumb 8.98487 17.5082
rfemur -21.5747 5.93037 19.2769
rtibia 8.88453
rfoot -19.8532 -8.25508
rtoes -31.2706
lfemur -25.1076 -10.0998 -20.493
ltibia 13.8725
lfoot -10.534 2.40999
ltoes -42.4974
11
root 7.41735 16.3016 31.5726 -157.044 -2.50804 177.553
lowerback -28.9956 -1.85298 -7.16031
upperback -0.970965 -0.620844 -0.217223
thorax 14.292 -0.985747 3.36025
lowerneck -6.26225 -1.95895 -1.3835
upperneck 7.10563 -2.75793 2.53055
head 3.46743 -1.32492 0.935932
rclavicle -2.80783e-015 1.09332e-014
rhumerus -38.6201 -25.1271 -73.3212
rradius 27.1316
rwrist 5.54878
rhand -12.7913 -56.4093
rfingers 7.12502
rthumb 13.2943 -85.9652
lclavicle -2.80783e-015 1.09332e-014
lhumerus -33.6016 19.2977 74.0709
lradius 13.65
lwrist -20.1472
lhand -17.2058 -12.6874
lfingers 7.12502
lthumb 9.0368 17.099
rfemur -21.5392 5.84358 19.2727
rtibia 8.87892
rfoot -19.8551 -8.32352
rtoes -31.6096
lfemur -25.0504 -10.1425 -20.5114
ltibia 13.7715
lfoot -10.515 2.28445
ltoes -41.9926
